<svg xmlns="http://www.w3.org/2000/svg" viewBox="0 0 300 300"><defs><style>.cls-1{fill:#aad6b4;}</style></defs><title>curved text</title><g id="圖層_2" data-name="圖層 2"><path class="cls-1" d="M158.34,273a2.25,2.25,0,0,0,2,1.32,1.26,1.26,0,0,0,1.29-1.28c-.06-1-.89-1.22-1.62-1.32a3.22,3.22,0,0,1-1.69-.5,1.22,1.22,0,0,1-.53-.89,1.82,1.82,0,0,1,1.84-1.87,3.79,3.79,0,0,1,1.6.39l.23-.25h.07l.66,1.38H162a3.1,3.1,0,0,0-2.35-1.27,1.43,1.43,0,0,0-1.44,1.4c0,.37.33,1,1.79,1.15a2.56,2.56,0,0,1,1.65.61,1.58,1.58,0,0,1,.41,1,1.68,1.68,0,0,1-1.69,1.69,3,3,0,0,1-1.38-.34l-.23.2h-.07l-.57-1.41Z"/><path class="cls-1" d="M152.69,269.29c0-.29-.12-.41-.44-.41h-.52v-.26l2.36,0v.25h-.56a.36.36,0,0,0-.41.4V274c0,.35.22.4.41.4h.57v.26l-2.37,0v-.26h.52c.3,0,.45-.06.45-.39Z"/><path class="cls-1" d="M145.21,273.72c0,.17.07.35.42.37a2.1,2.1,0,0,0,2.15-1.18H148l-.76,1.54-4.49-.32-.64-1.6h.21c.56,1.05.88,1.37,2,1.45.39,0,.46-.22.47-.31l.3-4.68c0-.35-.17-.45-.38-.46l-.43,0v-.26l2.1.15,0,.25-.41,0a.39.39,0,0,0-.45.4Z"/><path class="cls-1" d="M133.67,268.69c1-1.34,1.65-1.53,2.64-1.39,1.41.21,2.33,1.62,2.08,3.39a3.2,3.2,0,0,1-1.12,2.1,2.43,2.43,0,0,1-2,.52,2.86,2.86,0,0,1-1.19-.58l-.33.13h-.11l-.21-1.53.22,0a2.23,2.23,0,0,0,1.65,1.7,2.4,2.4,0,0,0,2.58-2.31c.17-1.21-.11-2.92-1.89-3.18a2.34,2.34,0,0,0-2.13,1.28Z"/><path class="cls-1" d="M127.56,265.63a2.86,2.86,0,0,1,2.08,3.63,2.79,2.79,0,1,1-5.41-1.2A2.83,2.83,0,0,1,127.56,265.63Zm1.62,3.53c.34-1.56-.28-3-1.68-3.29-1.25-.27-2.43.64-2.79,2.3s.32,3,1.58,3.28a2.06,2.06,0,0,0,1.71-.36A3.14,3.14,0,0,0,129.18,269.16Z"/><path class="cls-1" d="M116.76,262.84l.23.07.22.81,1.71,5.48,1.34-4.49a.45.45,0,0,0-.29-.63l-.3-.09.07-.25,1.76.54-.07.24-.35-.1a.48.48,0,0,0-.56.37l-1.3,4.36a.36.36,0,0,0,.26.48l.38.12-.07.24-1.17-.36-1.85-5.92L115.48,268c-.08.27.09.41.3.48l.35.1-.08.24-1.76-.53.07-.24.38.11a.36.36,0,0,0,.49-.23Z"/><path class="cls-1" d="M102.72,259.22c1.27-1,2-1.05,2.91-.65,1.31.57,1.82,2.16,1.12,3.8a3.21,3.21,0,0,1-1.63,1.74,2.41,2.41,0,0,1-2.05,0,2.83,2.83,0,0,1-1-.87l-.35,0-.11,0,.2-1.52.2.08a2.25,2.25,0,0,0,1.16,2.07,2.4,2.4,0,0,0,3.09-1.55c.48-1.12.66-2.85-1-3.56a2.36,2.36,0,0,0-2.4.68Z"/><path class="cls-1" d="M95.27,254.26a.53.53,0,0,0-.3-.55l-.3-.16.12-.22,1.91,1-.11.22-.23-.11c-.37-.18-.53-.16-.64,0a1.2,1.2,0,0,0-.07.26L95.48,256l2.33,1.22.9-.79a.73.73,0,0,0,.24-.27c.11-.22,0-.37-.27-.52l-.33-.17.12-.23,1.9,1-.12.22c-.54-.28-.69-.36-1.26.12l-4,3.46-.51,0ZM95,259.71l2.65-2.29-2.16-1.14Z"/><path class="cls-1" d="M89.06,249.89l.2.13-1,5.9,2.61-4.12c.14-.22.14-.41-.1-.56l-.32-.21.13-.21,1.55,1L92,252l-.33-.21a.35.35,0,0,0-.56.14l-2.48,3.93c-.15.23-.12.39.11.53l.35.22-.14.22-1.21-.77,1-5.56-4.63,3.26L82.87,253l.13-.21.34.22c.27.16.37.11.48,0l2.55-4c.09-.15.23-.36-.05-.54l-.4-.25.14-.21,1.72,1.09-.14.21-.38-.24c-.17-.11-.37-.08-.53.17l-2.66,4.21Z"/><path class="cls-1" d="M79.47,249.68a.43.43,0,0,0,0,.66l.31.23-.15.2-2.06-1.54c-1-.72-1.88-1.67-1.11-2.69a1.39,1.39,0,0,1,1.2-.57,3.84,3.84,0,0,1,2,.91l.87.65,1.28-1.7a.43.43,0,0,0-.1-.65l-.29-.22.15-.2L83.26,246l-.15.2-.35-.26a.4.4,0,0,0-.59.13Zm.07-2.6c-.59-.44-1.9-1.34-2.69-.29a1.13,1.13,0,0,0-.15,1.05A3,3,0,0,0,77.77,249l.58.44c.38.28.56.27.79,0l1.27-1.7Z"/><path class="cls-1" d="M72.53,237.34l-.2.22a8.4,8.4,0,0,1-2.91.4,2.92,2.92,0,0,0-2.23.56,1.15,1.15,0,0,0,0,1.73,1.24,1.24,0,0,0,1,.42,1.07,1.07,0,0,0,.61-.22,3.23,3.23,0,0,1,.18-.28.3.3,0,1,1,.42.43,1.71,1.71,0,0,1-2.36-.15,1.5,1.5,0,0,1-.12-2.25,2.72,2.72,0,0,1,2.25-.55,6.21,6.21,0,0,0,2.8-.28L70.51,236c-.28-.26-.49-.31-1.5.12l-.13-.12,1.36-.83Z"/><path class="cls-1" d="M61.66,235.1c-.71-.75-.28-2.08,1.08-3.36,1.53-1.45,2.83-1.35,3.38-.77s.52,1.87-1,3.32C63.74,235.57,62.33,235.81,61.66,235.1ZM64.8,234a4.49,4.49,0,0,0,1.33-1.85,1,1,0,0,0-.2-1c-.49-.52-1.61-.31-2.9.91-1,.93-1.82,2.21-1.19,2.87a1,1,0,0,0,.92.3A4.23,4.23,0,0,0,64.8,234Z"/><path class="cls-1" d="M57.64,228.91a.29.29,0,0,0,0,.45l.54.64-.2.17a2.68,2.68,0,0,0-1.36-.84l-.06-.06,4.05-3.37c.3-.25.21-.44,0-.64l-.48-.57.19-.16,1.83,2.17-.2.16-.5-.6a.39.39,0,0,0-.62,0Z"/><path class="cls-1" d="M53.91,220.8a2.09,2.09,0,0,1,1.06.72,1.41,1.41,0,0,1-.26,2.21,1.92,1.92,0,0,1-2.74-.18,1.55,1.55,0,0,1-.19-1.44,3.77,3.77,0,0,1,1.53-1.78c2.31-1.69,3.39-.62,3.63-.29a1.31,1.31,0,0,1,0,1.77.27.27,0,0,1-.41-.06.28.28,0,0,1,0-.41l.27-.12c.18-.13.2-.59-.11-1a1.21,1.21,0,0,0-1.06-.47,3.89,3.89,0,0,0-2.08.95Zm-.63.1A3.53,3.53,0,0,0,52,222.37a1.13,1.13,0,0,0,1.1,1.49,2.12,2.12,0,0,0,1.28-.45,1.09,1.09,0,0,0,.28-1.69,2.06,2.06,0,0,0-1-.68Z"/><path class="cls-1" d="M47.55,204.87c.32-.18.69.25.81.41-.23.17-.2.4-.13.75a.1.1,0,0,1,0,.12s-.06,0-.08,0l0,0a4.39,4.39,0,0,0-.26-.58c0-.1-.13-.24-.3-.15l-3.85,2.15,1,1.76c.23-.12.26-.14.34-.07s.22.24,0,.34l-2.4,1.33,0-.44-1-1.81-.29-.05.07-.42a.23.23,0,0,1,.1-.17.17.17,0,0,1,.17,0c.06.05.11.06.14,0Zm-5,3.26-.68.37,1,1.77.68-.38Zm.89-.5-.68.38,1,1.76.68-.38Zm1.13,6.79.08-.49-1-1.76-.3-.08,0-.45a.08.08,0,0,1,.05-.08.14.14,0,0,1,.18.05.1.1,0,0,0,.13,0l2-1.1a.14.14,0,0,1,.14,0c.19.2.23.25.06.34l-.25.14,1,1.74L51,210.35c.08,0,.14,0,.32.21q0,.06-.12.15Zm.29-.63.67-.38-1-1.74-.68.38Zm.45-5.14-.64-.25.08-.65a.14.14,0,0,1,.08-.12.17.17,0,0,1,.23.08l.55,1,1.08-.6-.23-.39-.64-.25.09-.65a.13.13,0,0,1,.07-.12.17.17,0,0,1,.24.08l.68,1.21,1.89-1c.1-.05.27.19.28.21s0,.11-.08.15l-1.88,1.06.64,1.14.6-.24a2.13,2.13,0,0,1,1.06-.09,2.52,2.52,0,0,1,1,.38.12.12,0,0,1,0,.12.07.07,0,0,1-.06,0,2.48,2.48,0,0,0-1.82-.05l-.53.23.63,1.11-.18.17-.67-1.17-1.08.57.48.86-.18.18Zm.44,4.64.68-.38-1-1.74-.68.38Zm1.14-4.82-1.07.59.61,1.09,1.1-.55Z"/><path class="cls-1" d="M36.94,197.9l-.61-.29.13-.61a.28.28,0,0,1,.13-.15.15.15,0,0,1,.2.1l.85,1.92.62,0,.62,0-.65-1.46-.29-.11.07-.45a.1.1,0,0,1,.05-.08.17.17,0,0,1,.18.07.12.12,0,0,0,.12.06l2.36-1a.11.11,0,0,1,.14,0c.16.2.21.26,0,.34l-.3.13.4.9,2.24-1c.25-.11.61,0,1,.42a.6.6,0,0,0-.18.2,1.49,1.49,0,0,0,0,.74.06.06,0,0,1,0,.08s-.06,0-.08,0a8.19,8.19,0,0,0-.29-.82c-.07-.17-.11-.22-.25-.16l-2.17.95.43,1,.25-.11s.09,0,.15,0c.16.23.19.27,0,.34l-2.87,1.25.09-.48-.25-.57-.55.06-.59.15.83,1.88,1.06-.46a20.22,20.22,0,0,1,2.45-.92,6.59,6.59,0,0,1,1.78-.3c.37,0,1.18,0,1.25.17a.09.09,0,0,1-.05.09,0,0,0,0,1,0,0c-1.18-.08-2.31.06-5.23,1.34l-1.56.68.11-.5Zm2.5,1.65.86-.37-1-2.24-.86.38Zm0,2.68c.21-.1.29-.13.34,0s.09.2,0,.29a1.89,1.89,0,0,0-.59,1.05.05.05,0,0,1,0,.06.08.08,0,0,1-.11,0A2.17,2.17,0,0,1,39.46,202.23Zm3.93-1.13.43-.1a3.31,3.31,0,0,0,.76-.53,2.44,2.44,0,0,1,.5-.32c.16-.07.48-.16.57,0s-.13.39-.46.54l-.76.28a3.08,3.08,0,0,0-.5.28,1.79,1.79,0,0,0,.19.63.07.07,0,0,1,0,.1S44,202,44,202c-.25-.5-.39-.58-.71-.55l-3.81.26a.08.08,0,0,1-.08,0c0-.06,0-.09.07-.12Zm-2.86-2,.82-.36-1-2.24-.82.36Zm1.41,3.1a1.76,1.76,0,0,0-.62,1,.08.08,0,0,1,0,.07s-.1,0-.12,0a2.19,2.19,0,0,1,.42-1.33c.22-.09.33-.14.39,0A.2.2,0,0,1,41.94,202.18Zm-.44-5.8a.08.08,0,0,1-.1,0,3,3,0,0,1,1-1.81c.05,0,.26-.09.32.06a.21.21,0,0,1-.06.26,2.92,2.92,0,0,0-1.12,1.46A.09.09,0,0,1,41.5,196.38Zm.83,2.28,0-.47a.15.15,0,0,1,.06-.15c.09,0,.13,0,.23.15a4.06,4.06,0,0,1,2.23.74.05.05,0,0,1,0,.08s0,0-.05,0a4.59,4.59,0,0,0-2.2-.41Z"/><path class="cls-1" d="M35.4,191.76l.37,0c.43,0,.83.09.9.3a.22.22,0,0,1-.15.29.5.5,0,0,1-.26-.1,1.61,1.61,0,0,0-1.35-.18.06.06,0,0,1-.08,0,.07.07,0,0,1,0-.09l.29-.09-.81-2.45-1,.32-.07-.43c0-.13,0-.2.07-.22a.13.13,0,0,1,.16.06.12.12,0,0,0,.14,0l.57-.18-.89-2.66-.35-.13.23-.41c0-.09.08-.14.14-.16s.17,0,.2.13.07.17.13.18a5.49,5.49,0,0,1,1,.36.08.08,0,0,1-.05.1h0a4.18,4.18,0,0,0-1-.09Zm-.15-4.55-.58-.37.21-.62a.13.13,0,0,1,.1-.1c.1,0,.18,0,.21.13l.72,2.18,1.45-.47-.78-2.35-.58-.36.2-.63a.16.16,0,0,1,.11-.1c.11,0,.18,0,.21.13l1.07,3.24,2.21-.72c.28-.09.62,0,.9.51a.55.55,0,0,0-.21.2,1.57,1.57,0,0,0,0,.8.06.06,0,0,1-.05.08s-.06,0-.07,0c-.09-.42-.16-.72-.22-.91s-.11-.25-.25-.2l-2.14.69,1.06,3.19-.21.14-1.08-3.26-1.44.47.71,2.14-.21.14Z"/><path class="cls-1" d="M32.19,180.57l.34,0c.56,0,.82.2.85.35a.23.23,0,0,1-.17.28.44.44,0,0,1-.25-.13,1.51,1.51,0,0,0-1.28-.24s-.07,0-.08-.06,0-.06,0-.07l.31-.07L31.33,178l-1.17.27,0-.44q0-.19.09-.21a.12.12,0,0,1,.15.07.13.13,0,0,0,.14.07l.73-.16-.63-2.73-.33-.18.29-.39a.16.16,0,0,1,.13-.12.13.13,0,0,1,.18.11l0,.1a.24.24,0,0,0,.1.15,5,5,0,0,1,1,.52.11.11,0,0,1-.07.09h0a4.39,4.39,0,0,0-1.06-.28Zm1.31-.52.24-.49-.48-2.06-1.33.3,0-.44c0-.14,0-.2.08-.21a.13.13,0,0,1,.15.07.13.13,0,0,0,.15.07l.88-.2-.5-2.13-.3-.14.15-.43s0,0,.08,0a.17.17,0,0,1,.18.08c0,.06.07.07.09.06l3.85-.86c.12,0,.2.22.21.26s0,.12-.11.14l-.31.07,1.07,4.61.33-.08c.1,0,.14.07.25.29,0,.06,0,.09-.15.12Zm1.42-3.36-.5-2.13-1.5.34.49,2.13Zm-1.41.75.48,2.07,1.5-.34L35,177.1Zm1.65-.8,1.6-.36-.49-2.14-1.61.37Zm.57,2.48,1.61-.37-.48-2.07-1.61.37Z"/><path class="cls-1" d="M34.49,161.25a2.84,2.84,0,0,1-2.83,3.06,3,3,0,0,1-3.38-2.51,2.9,2.9,0,0,1,2.86-3A2.88,2.88,0,0,1,34.49,161.25Zm-2.87,2.59c1.59-.14,2.75-1.14,2.62-2.57-.12-1.27-1.36-2.12-3.06-2s-2.76,1.2-2.64,2.48a2,2,0,0,0,.87,1.52A3.16,3.16,0,0,0,31.62,163.84Z"/><path class="cls-1" d="M28.67,154.29c-.28,0-.5.12-.49.44v.38h-.26l-.05-2.56c0-1.19.16-2.49,1.45-2.5a1.41,1.41,0,0,1,1.19.6,3.81,3.81,0,0,1,.5,2.11l0,1.09,2.14,0a.42.42,0,0,0,.45-.47V153h.25l0,2.07h-.26v-.43a.4.4,0,0,0-.47-.38Zm2.1-1.52c0-.74-.11-2.31-1.43-2.3a1.14,1.14,0,0,0-.93.51,3,3,0,0,0-.27,1.57v.72c0,.47.14.61.51.6l2.13,0Z"/><path class="cls-1" d="M28.85,145.3c-.43,0-.66.17-.67.4l0,.38-.25,0,.25-4.53,1.61-.41v.21c-1,.32-1.37.68-1.41,1.38l-.1,1.72c0,.36.39.44.63.45l1.91.12.08-1.42c0-.67-.21-.77-1-.82v-.21l2.25.14v.21c-.84-.05-1,.07-1,.7L31,145l2.21.14a.41.41,0,0,0,.48-.4l.09-1.6a2.19,2.19,0,0,0-1.19-1.85v-.21l1.5.81-.25,4.53-.26,0,0-.42a.43.43,0,0,0-.44-.43Z"/><path class="cls-1" d="M35.14,133l0,.24-.76.33-5.16,2.52,4.67.64a.45.45,0,0,0,.58-.38l0-.31.25,0-.24,1.81-.25,0,0-.35a.51.51,0,0,0-.47-.5l-4.53-.63a.36.36,0,0,0-.43.34l-.05.39-.26,0,.17-1.21,5.56-2.72-4.49-.62a.36.36,0,0,0-.42.36l-.05.37-.25,0,.24-1.82.26,0-.06.38a.37.37,0,0,0,.32.45Z"/><path class="cls-1" d="M33.73,128.42l.49-2.45.47.09-.49,2.45Z"/><path class="cls-1" d="M33.94,117.78a2.2,2.2,0,0,0-1.87,1.5,1.28,1.28,0,0,0,.83,1.63c1,.27,1.44-.47,1.75-1.12a3.16,3.16,0,0,1,1-1.45,1.19,1.19,0,0,1,1-.22,1.83,1.83,0,0,1,1.22,2.33,3.6,3.6,0,0,1-.85,1.39l.17.3,0,.07-1.53.19.06-.2a3.07,3.07,0,0,0,1.93-1.82,1.44,1.44,0,0,0-.9-1.8c-.37-.1-1.07,0-1.65,1.32A2.45,2.45,0,0,1,34,121.28a1.57,1.57,0,0,1-1.07.07,1.7,1.7,0,0,1-1.11-2.14,3.12,3.12,0,0,1,.75-1.19l-.12-.28,0-.07,1.52-.1Z"/><path class="cls-1" d="M40.4,112.37A2.85,2.85,0,0,1,36.54,114a3,3,0,0,1-2-3.68,2.93,2.93,0,0,1,3.85-1.53A2.87,2.87,0,0,1,40.4,112.37Zm-3.7,1.16c1.51.53,3,.1,3.46-1.25s-.36-2.49-2-3-3-.06-3.45,1.16a2.06,2.06,0,0,0,.17,1.74A3.16,3.16,0,0,0,36.7,113.53Z"/><path class="cls-1" d="M41.24,104.74a1.5,1.5,0,0,0,2.17-.88,1.65,1.65,0,0,0-1-2.32l-2.85-1.25c-.44-.19-.63,0-.68.07l-.17.39-.21-.09L39.18,99l.21.09-.15.34c-.09.19,0,.44.38.6l2.85,1.25a1.94,1.94,0,0,1,1.09,2.86,1.92,1.92,0,0,1-1.07,1.14,1.83,1.83,0,0,1-1.41-.16L38,103.77c-.5-.21-.67,0-.72.13l-.17.4-.21-.09.82-1.91.22.1-.14.32c-.13.29,0,.52.36.67Z"/><path class="cls-1" d="M41.77,95.22a.4.4,0,0,0-.57.19l-.18.35-.22-.12L42,93.38c.65-1.24,1.43-2.06,2.48-1.51a1.4,1.4,0,0,1,.75,1.1,3.14,3.14,0,0,1-.29,1.53l2.68-.18.32-.08a.59.59,0,0,0,.23-.24l.19-.36.22.12-.52,1-3.32.16L44.15,96l2,1c.29.16.47-.13.53-.23l.17-.34.23.12-1,1.83-.22-.12.2-.38a.36.36,0,0,0-.13-.51ZM44.42,95a3.24,3.24,0,0,0,.5-1.68,1.17,1.17,0,0,0-.65-1,1.09,1.09,0,0,0-1.05,0,2.93,2.93,0,0,0-1,1.24l-.33.63c-.22.41-.2.58.08.73l2,1Z"/><path class="cls-1" d="M51.44,85.72c.84,1.41.74,2.13.22,3-.75,1.21-2.41,1.47-3.93.51a3.27,3.27,0,0,1-1.49-1.87,2.45,2.45,0,0,1,.31-2,2.73,2.73,0,0,1,1-.84V84.1l.06-.1,1.49.44-.12.18a2.21,2.21,0,0,0-2.21.82,2.43,2.43,0,0,0,1.09,3.3c1,.64,2.73,1.09,3.67-.42a2.37,2.37,0,0,0-.33-2.48Z"/><path class="cls-1" d="M51.22,80c-.36-.26-.65-.22-.79,0l-.22.31L50,80.16l2.67-3.66,1.59.52-.12.16c-1-.27-1.54-.16-2,.41l-1,1.39c-.21.29.09.57.28.71L53,80.82l.84-1.15c.39-.54.25-.76-.37-1.21l.13-.16,1.83,1.33-.13.16c-.68-.49-.89-.48-1.26,0L53.22,81,55,82.27a.4.4,0,0,0,.62-.07l1-1.3a2.16,2.16,0,0,0,0-2.18l.13-.18L57.52,80l-2.67,3.66-.2-.15.25-.34a.44.44,0,0,0-.14-.6Z"/><path class="cls-1" d="M62.76,70.84a1.51,1.51,0,0,0,2.34-.12,1.65,1.65,0,0,0-.24-2.53l-2.29-2.11c-.35-.33-.58-.25-.66-.16l-.29.32-.17-.16,1.23-1.33.17.15-.25.28c-.14.15-.14.41.16.69L65.06,68a2.22,2.22,0,0,1-1.3,3.78,1.87,1.87,0,0,1-1.28-.62L60,68.87c-.4-.36-.64-.2-.72-.11l-.3.32-.16-.16,1.4-1.52.17.15-.23.26c-.22.23-.17.49.12.76Z"/><path class="cls-1" d="M73,63.17l-.17.17L72,63.11,66.38,61.8l3.22,3.44a.47.47,0,0,0,.7.08l.23-.22.17.19-1.33,1.24-.18-.19.26-.24a.51.51,0,0,0,0-.68l-3.13-3.33a.36.36,0,0,0-.55,0l-.29.27-.17-.18.89-.83,6,1.41-3.1-3.31a.36.36,0,0,0-.56,0l-.27.25-.17-.19,1.34-1.25.17.19-.28.26a.36.36,0,0,0,0,.54Z"/><path class="cls-1" d="M76.75,59.08c.18.23.35.24.59,0l.41-.33.16.2-1.82,1.5-.16-.2.43-.36a.36.36,0,0,0,.06-.57l-3-3.61a.34.34,0,0,0-.56,0l-.44.36-.16-.2,1.82-1.5.16.2-.4.33c-.23.18-.3.33-.09.58Z"/><path class="cls-1" d="M78.12,52.12a.59.59,0,0,0-.72-.06l-.3.22L77,52.07l1.72-1.24.15.21-.35.25c-.24.17-.23.37-.16.47a.45.45,0,0,0,.15.11l4.25,2.75L81.5,49.73a.64.64,0,0,0-.08-.2c-.13-.18-.36-.11-.51,0l-.33.23-.15-.2L82,48.43l.15.2-.28.2c-.22.17-.26.31-.14.73l1.38,5.53-.2.15Z"/><path class="cls-1" d="M86.31,46.71c-.23-.37-.52-.44-.72-.32l-.33.2-.13-.22L89,44l1.27,1.08-.18.1c-.85-.64-1.36-.72-2-.36l-1.47.9c-.31.19-.13.56,0,.77l1,1.62,1.21-.74c.57-.35.52-.61.12-1.25l.18-.11,1.19,1.92-.18.11c-.44-.72-.64-.78-1.18-.45l-1.21.74L89,50.21a.4.4,0,0,0,.6.17l1.37-.83a2.16,2.16,0,0,0,.83-2l.18-.11.2,1.68-3.86,2.37-.14-.22.36-.22a.41.41,0,0,0,.1-.6Z"/><path class="cls-1" d="M94,42a.38.38,0,0,0-.57-.17l-.35.18L93,41.75l2.28-1.18c1.25-.64,2.35-.87,2.9.17a1.37,1.37,0,0,1,0,1.33A3,3,0,0,1,97,43.16l2.32,1.38.3.11a.46.46,0,0,0,.33-.07l.36-.19.12.23-1,.52-2.83-1.76L95.51,44l1,2c.15.29.47.15.57.1l.33-.17.12.22-1.84,1-.12-.23.39-.2a.35.35,0,0,0,.18-.49Zm2.35,1.28a3.25,3.25,0,0,0,1.37-1.1,1.18,1.18,0,0,0,.05-1.2,1.09,1.09,0,0,0-.88-.58,2.83,2.83,0,0,0-1.53.44l-.64.32c-.41.22-.5.36-.35.65l1,2Z"/><path class="cls-1" d="M105.52,37.53a2.25,2.25,0,0,0-2.35-.53,1.26,1.26,0,0,0-.76,1.65c.42,1,1.27.84,2,.67a3.21,3.21,0,0,1,1.75-.11,1.26,1.26,0,0,1,.82.65,1.81,1.81,0,0,1-1.07,2.39,3.79,3.79,0,0,1-1.63.19l-.13.32-.07,0L103,41.72l.19-.09a3.13,3.13,0,0,0,2.64.39,1.43,1.43,0,0,0,.85-1.82c-.15-.35-.66-.84-2.07-.46a2.57,2.57,0,0,1-1.76,0,1.65,1.65,0,0,1-.73-.79,1.69,1.69,0,0,1,1-2.19,3.23,3.23,0,0,1,1.41-.15l.13-.26.07,0,1,1.13Z"/><path class="cls-1" d="M110.05,35c-.15-.41-.42-.54-.64-.47l-.36.13-.08-.24,4.28-1.5,1,1.32-.2.07c-.7-.81-1.17-1-1.83-.77l-1.63.57c-.34.12-.25.53-.17.75l.64,1.8,1.34-.47c.64-.22.64-.48.39-1.2L113,35l.76,2.12-.2.07c-.29-.8-.46-.9-1.06-.69l-1.34.47.74,2.08a.41.41,0,0,0,.56.29l1.51-.53a2.15,2.15,0,0,0,1.24-1.8l.2-.07-.15,1.69L111,40.08l-.08-.24.4-.14a.41.41,0,0,0,.22-.56Z"/></g></svg>