<?xml version="1.0" encoding="UTF-8" standalone="no"?>
<!-- Generator: Adobe Illustrator 18.1.0, SVG Export Plug-In . SVG Version: 6.00 Build 0)  -->

<svg
   xmlns:dc="http://purl.org/dc/elements/1.1/"
   xmlns:cc="http://creativecommons.org/ns#"
   xmlns:rdf="http://www.w3.org/1999/02/22-rdf-syntax-ns#"
   xmlns:svg="http://www.w3.org/2000/svg"
   xmlns="http://www.w3.org/2000/svg"
   xmlns:sodipodi="http://sodipodi.sourceforge.net/DTD/sodipodi-0.dtd"
   xmlns:inkscape="http://www.inkscape.org/namespaces/inkscape"
   version="1.1"
   id="圖層_1"
   x="0px"
   y="0px"
   viewBox="0 0 153.6 221.57699"
   enable-background="new 0 0 841.9 595.3"
   xml:space="preserve"
   sodipodi:docname="logoicon.svg"
   width="153.60001"
   height="221.57698"
   inkscape:version="0.92.3 (2405546, 2018-03-11)"><metadata
   id="metadata29"><rdf:RDF><cc:Work
       rdf:about=""><dc:format>image/svg+xml</dc:format><dc:type
         rdf:resource="http://purl.org/dc/dcmitype/StillImage" /><dc:title></dc:title></cc:Work></rdf:RDF></metadata><defs
   id="defs27" /><sodipodi:namedview
   pagecolor="#ffffff"
   bordercolor="#666666"
   borderopacity="1"
   objecttolerance="10"
   gridtolerance="10"
   guidetolerance="10"
   inkscape:pageopacity="0"
   inkscape:pageshadow="2"
   inkscape:window-width="1920"
   inkscape:window-height="1013"
   id="namedview25"
   showgrid="false"
   fit-margin-top="0"
   fit-margin-left="0"
   fit-margin-right="0"
   fit-margin-bottom="0"
   inkscape:zoom="0.39643878"
   inkscape:cx="-90.049988"
   inkscape:cy="89.250006"
   inkscape:window-x="-9"
   inkscape:window-y="-9"
   inkscape:window-maximized="1"
   inkscape:current-layer="g22" />
<g
   id="g22"
   transform="translate(-511,-165.32302)">
	
	
	
	
	
	<g
   id="g20"
   style="fill:#ffffff">
		<path
   d="m 617.4,172.2 c 12.9,-9.9 28.3,-6.2 28.3,-6.2 0,0 -2.6,18.3 -15.5,28.2 -12.9,9.9 -31.4,7.5 -31.4,7.5 0,0 4,-6 8,-13.9 2.4,-4.6 5.8,-12 10.6,-15.6 z"
   id="path12"
   inkscape:connector-curvature="0"
   style="fill:#ffffff" />
		<path
   d="m 586.3,187.1 c -6,-4.6 -13.2,-2.9 -13.2,-2.9 0,0 1.2,8.6 7.2,13.2 6,4.6 14.6,3.5 14.6,3.5 0,0 -1.9,-2.8 -3.7,-6.5 -1.1,-2.2 -2.7,-5.6 -4.9,-7.3 z"
   id="path14"
   inkscape:connector-curvature="0"
   style="fill:#ffffff" />
		<path
   d="m 587.8,230.8 c 1.8,0 3.5,0.1 5.3,0.2 -1.6,-9.4 -1.3,-19.1 3.6,-27.5 -8.5,6.8 -12.6,17.2 -14.7,27.6 1.9,-0.2 3.8,-0.3 5.8,-0.3 z"
   id="path16"
   inkscape:connector-curvature="0"
   style="fill:#ffffff" />
		<path
   d="m 587.8,233.9 c -42.4,0 -76.8,34.3 -76.8,76.5 0,42.3 34.4,76.5 76.8,76.5 42.4,0 76.8,-34.3 76.8,-76.5 -0.1,-42.2 -34.4,-76.5 -76.8,-76.5 z m 31.3,107.8 -31.4,-21.5 -31.4,21.5 21.6,-31.3 -21.6,-31.3 31.4,21.5 31.4,-21.5 -21.6,31.3 z"
   id="path18"
   inkscape:connector-curvature="0"
   style="fill:#ffffff" />
	</g>
</g>
</svg>