<svg xmlns="http://www.w3.org/2000/svg" xmlns:xlink="http://www.w3.org/1999/xlink" viewBox="0 0 1000 1000"><defs><style>.cls-1{fill:none;}.cls-2{fill:#e82924;}.cls-3{clip-path:url(#clip-path);}.cls-4{fill:#7e2e13;}.cls-5{fill:url(#未命名漸層_47);}.cls-6{fill:url(#未命名漸層_47-2);}.cls-7{fill:url(#未命名漸層_47-3);}.cls-8{fill:url(#未命名漸層_47-4);}</style><clipPath id="clip-path"><circle class="cls-1" cx="499.61" cy="499.92" r="500.08"/></clipPath><linearGradient id="未命名漸層_47" x1="2389.35" y1="-3788.85" x2="2625.42" y2="-3788.85" gradientTransform="translate(-4063.73 1816.26) rotate(45)" gradientUnits="userSpaceOnUse"><stop offset="0" stop-color="#e363b1"/><stop offset="1" stop-color="#fc3e53"/></linearGradient><linearGradient id="未命名漸層_47-2" x1="2025.52" y1="-4026.02" x2="2643.62" y2="-4026.02" gradientTransform="translate(-2119.01 4698.97)" xlink:href="#未命名漸層_47"/><linearGradient id="未命名漸層_47-3" x1="2491.02" y1="-4645.13" x2="3109.27" y2="-4645.13" gradientTransform="translate(-2119.01 4698.97)" xlink:href="#未命名漸層_47"/><linearGradient id="未命名漸層_47-4" x1="2654.12" y1="-3947.01" x2="3272.22" y2="-3947.01" gradientTransform="translate(-2119.01 4698.97)" xlink:href="#未命名漸層_47"/></defs><title>planet_pink</title><g id="圖層_2" data-name="圖層 2"><circle class="cls-2" cx="499.61" cy="499.92" r="500.08"/><g class="cls-3"><circle class="cls-4" cx="562.98" cy="943.07" r="118.03"/><circle class="cls-4" cx="680.94" cy="452.55" r="118.03"/><circle class="cls-4" cx="223.38" cy="167.45" r="118.03"/><circle class="cls-5" cx="388.38" cy="910.12" r="118.03" transform="translate(-529.8 541.19) rotate(-45)"/><path class="cls-6" d="M215.57,363.9c-170.69,0-309,138.37-309,309.05S44.88,982,215.57,982A310.63,310.63,0,0,0,275,976.29a190.42,190.42,0,0,1-59-138c0-105.48,85.51-191,191-191a190.12,190.12,0,0,1,117.31,40.27q.35-7.26.34-14.59C524.61,502.27,386.25,363.9,215.57,363.9Z"/><path class="cls-7" d="M560.5,337.38a310.84,310.84,0,0,0,56.91,17.93,190.37,190.37,0,0,1-.43-150.1c41.17-97.12,153.28-142.47,250.39-101.29a190.11,190.11,0,0,1,86.55,73.23,117.77,117.77,0,1,0,6,9.17q3-6.33,5.79-12.83c66.63-157.15-6.75-338.55-163.89-405.17s-338.55,6.75-405.17,163.9S403.36,270.76,560.5,337.38Z"/><path class="cls-8" d="M857.74,443.21c-170.52-7.5-314.83,124.66-322.33,295.18a310.26,310.26,0,0,0,3.1,59.58A190.42,190.42,0,0,1,679,745.1c105.38,4.63,187,93.82,182.42,199.2A190.17,190.17,0,0,1,816,1059.73c4.82.43,9.67.77,14.56,1,170.52,7.5,314.83-124.66,322.33-295.17S1028.26,450.71,857.74,443.21Z"/></g></g></svg>