<svg xmlns="http://www.w3.org/2000/svg" xmlns:xlink="http://www.w3.org/1999/xlink" viewBox="0 0 1000 1000"><defs><style>.cls-1{fill:none;}.cls-2{fill:#77b55a;}.cls-3{clip-path:url(#clip-path);}.cls-4{fill:#004f47;}.cls-5{fill:url(#未命名漸層_96);}.cls-6{fill:url(#未命名漸層_96-2);}.cls-7{fill:url(#未命名漸層_96-3);}.cls-8{fill:url(#未命名漸層_96-4);}</style><clipPath id="clip-path"><circle class="cls-1" cx="500" cy="500" r="500"/></clipPath><linearGradient id="未命名漸層_96" x1="1099.77" y1="177.24" x2="223.94" y2="1080.06" gradientTransform="translate(757.43 -8.34) rotate(45)" gradientUnits="userSpaceOnUse"><stop offset="0" stop-color="#006082"/><stop offset="1" stop-color="#9fff00"/></linearGradient><linearGradient id="未命名漸層_96-2" x1="872.43" y1="-43.3" x2="-3.4" y2="859.52" gradientTransform="matrix(1, 0, 0, 1, 0, 0)" xlink:href="#未命名漸層_96"/><linearGradient id="未命名漸層_96-3" x1="847.41" y1="-67.57" x2="-28.41" y2="835.25" gradientTransform="matrix(1, 0, 0, 1, 0, 0)" xlink:href="#未命名漸層_96"/><linearGradient id="未命名漸層_96-4" x1="1255.51" y1="328.32" x2="379.68" y2="1231.14" gradientTransform="matrix(1, 0, 0, 1, 0, 0)" xlink:href="#未命名漸層_96"/></defs><title>planet_green</title><g id="圖層_2" data-name="圖層 2"><circle class="cls-2" cx="500" cy="500" r="500"/><g class="cls-3"><circle class="cls-4" cx="563.36" cy="943.08" r="118.01"/><circle class="cls-4" cx="681.3" cy="452.64" r="118.01"/><circle class="cls-4" cx="223.81" cy="167.58" r="118.01"/><circle class="cls-5" cx="388.78" cy="910.14" r="118.01" transform="translate(-529.69 541.48) rotate(-45)"/><path class="cls-6" d="M216,364C45.34,364-93,502.34-93,673S45.34,982,216,982a310.63,310.63,0,0,0,59.38-5.7,190.44,190.44,0,0,1-59-138c0-105.47,85.5-191,191-191a190.15,190.15,0,0,1,117.3,40.26q.33-7.26.34-14.59C525,502.34,386.66,364,216,364Z"/><path class="cls-7" d="M560.88,337.49a310.7,310.7,0,0,0,56.9,17.92,190.41,190.41,0,0,1-.43-150.08C658.52,108.23,770.6,62.89,867.7,104.06a190.06,190.06,0,0,1,86.54,73.22,117.7,117.7,0,1,0,6,9.17q3-6.33,5.79-12.83c66.61-157.12-6.76-338.49-163.87-405.11S463.63-224.73,397-67.62,403.77,270.87,560.88,337.49Z"/><path class="cls-8" d="M858.07,443.3C687.58,435.8,543.29,567.94,535.8,738.43A310.92,310.92,0,0,0,538.89,798a190.42,190.42,0,0,1,140.46-52.86c105.37,4.63,187,93.8,182.39,199.16a190.11,190.11,0,0,1-45.37,115.42c4.82.43,9.67.77,14.56,1,170.49,7.5,314.78-124.64,322.27-295.13S1028.56,450.79,858.07,443.3Z"/></g></g></svg>