<svg xmlns="http://www.w3.org/2000/svg" xmlns:xlink="http://www.w3.org/1999/xlink" viewBox="0 0 300 300"><defs><style>.cls-1,.cls-2,.cls-3,.cls-4,.cls-5,.cls-6,.cls-7,.cls-8,.cls-9{fill:none;stroke-miterlimit:10;stroke-width:0.45px;}.cls-1{stroke:url(#未命名漸層_3);}.cls-2{stroke:url(#未命名漸層_3-2);}.cls-3{stroke:url(#未命名漸層_3-3);}.cls-4{stroke:url(#未命名漸層_3-4);}.cls-5{stroke:url(#未命名漸層_3-5);}.cls-6{stroke:url(#未命名漸層_3-6);}.cls-7{stroke:url(#未命名漸層_3-7);}.cls-8{stroke:url(#未命名漸層_3-8);}.cls-9{stroke-dasharray:5.44;stroke:url(#未命名漸層_3-9);}</style><linearGradient id="未命名漸層_3" x1="89.21" y1="99.67" x2="227.79" y2="99.67" gradientTransform="translate(240.15 -68.83) rotate(83.69)" gradientUnits="userSpaceOnUse"><stop offset="0.06" stop-color="#ffa1c5"/><stop offset="0.93" stop-color="#99b5ff"/></linearGradient><linearGradient id="未命名漸層_3-2" x1="84.75" y1="200.16" x2="206.51" y2="200.16" gradientTransform="translate(333.09 38.51) rotate(85.27)" xlink:href="#未命名漸層_3"/><linearGradient id="未命名漸層_3-3" x1="59.62" y1="156.45" x2="242.08" y2="156.45" gradientTransform="translate(285.69 -13.99) rotate(82.31)" xlink:href="#未命名漸層_3"/><linearGradient id="未命名漸層_3-4" x1="61.62" y1="142.43" x2="243.77" y2="142.43" gradientTransform="translate(262.44 -35.21) rotate(78.7)" xlink:href="#未命名漸層_3"/><linearGradient id="未命名漸層_3-5" x1="142.49" y1="149.58" x2="160.93" y2="149.58" gradientTransform="translate(286.05 -15.77) rotate(84.5)" xlink:href="#未命名漸層_3"/><linearGradient id="未命名漸層_3-6" x1="97.26" y1="147.41" x2="224.59" y2="147.41" gradientTransform="translate(88.54 -58.47) rotate(28.14)" xlink:href="#未命名漸層_3"/><linearGradient id="未命名漸層_3-7" x1="79.43" y1="145.68" x2="212.09" y2="145.68" gradientTransform="translate(181.13 -57.34) rotate(54.9)" xlink:href="#未命名漸層_3"/><linearGradient id="未命名漸層_3-8" x1="59.65" y1="150" x2="245.45" y2="150" gradientTransform="matrix(1, 0, 0, 1, 0, 0)" xlink:href="#未命名漸層_3"/><linearGradient id="未命名漸層_3-9" x1="11.36" y1="147.41" x2="288.64" y2="147.41" gradientTransform="matrix(1, 0, 0, 1, 0, 0)" xlink:href="#未命名漸層_3"/></defs><title>cage</title><g id="圖層_2" data-name="圖層 2"><ellipse class="cls-1" cx="158.5" cy="99.67" rx="34.36" ry="69.38" transform="translate(42.03 246.26) rotate(-83.69)"/><ellipse class="cls-2" cx="145.63" cy="200.16" rx="39.1" ry="60.78" transform="translate(-65.87 328.77) rotate(-85.27)"/><ellipse class="cls-3" cx="150.85" cy="156.45" rx="54.2" ry="91.54" transform="translate(-24.38 284.99) rotate(-82.31)"/><ellipse class="cls-4" cx="152.69" cy="142.43" rx="70.7" ry="91.55" transform="translate(-16.89 264.26) rotate(-78.7)"/><ellipse class="cls-5" cx="151.71" cy="149.58" rx="89.14" ry="2.8" transform="translate(-11.72 286.25) rotate(-84.5)"/><ellipse class="cls-6" cx="160.93" cy="147.41" rx="53.58" ry="89.78" transform="translate(-50.5 93.32) rotate(-28.14)"/><ellipse class="cls-7" cx="145.76" cy="145.68" rx="88.76" ry="51.33" transform="matrix(0.58, -0.82, 0.82, 0.58, -57.24, 181.16)"/><ellipse class="cls-8" cx="152.55" cy="150" rx="92.68" ry="89.46"/><path class="cls-9" d="M76.61,160.75c-40,14.79-66.21,26.85-65,30.72C13.49,197.31,77,182.32,153.37,158s136.86-48.79,135-54.63c-1.22-3.81-28.61,1.23-68.7,12"/></g></svg>