<svg xmlns="http://www.w3.org/2000/svg" xmlns:xlink="http://www.w3.org/1999/xlink" viewBox="0 0 315.44 104.47"><defs><style>.cls-1{fill:none;}.cls-2,.cls-3{fill:#fff;}.cls-3{stroke:#fff;stroke-miterlimit:10;stroke-width:2px;}.cls-4{clip-path:url(#clip-path);}.cls-5{clip-path:url(#clip-path-2);}</style><clipPath id="clip-path" transform="translate(-14.29 -11.67)"><rect class="cls-1" x="0.38" y="76.57" width="261.77" height="39.43"/></clipPath><clipPath id="clip-path-2" transform="translate(-14.29 -11.67)"><rect class="cls-1" width="261.77" height="39.43"/></clipPath></defs><title>camp2019</title><g id="圖層_2" data-name="圖層 2"><g id="圖層_2-2" data-name="圖層 2"><path class="cls-2" d="M16.9,68.26l.93-1a10.57,10.57,0,0,0,8.1,3.77c4.33,0,7.09-2.35,7.09-5.74,0-3.62-2.28-4.74-5-6l-4.14-1.86c-2.36-1-5.53-2.65-5.53-6.65S21.64,44.3,26,44.3a9.93,9.93,0,0,1,7.39,3.21l-.86.93A8.73,8.73,0,0,0,26,45.61c-3.77,0-6.27,2-6.27,5.07,0,3.4,2.84,4.63,4.74,5.49L28.65,58c3.06,1.38,5.75,3,5.75,7.16S31,72.37,25.93,72.37A11.54,11.54,0,0,1,16.9,68.26Z" transform="translate(-14.29 -11.67)"/><path class="cls-2" d="M40.26,44.79h1.38v27.1H40.26Z" transform="translate(-14.29 -11.67)"/><path class="cls-2" d="M55.71,46H47V44.79H65.9V46H57.17V71.89H55.71Z" transform="translate(-14.29 -11.67)"/><path class="cls-2" d="M68.63,58.26c0-8.55,4.55-14,11.42-14A9,9,0,0,1,87,47.51l-.86.93a7.84,7.84,0,0,0-6-2.83c-6.2,0-10,4.89-10,12.65s3.77,12.8,9.82,12.8c2.84,0,5-1.15,7-3.43l.85.9a9.87,9.87,0,0,1-8,3.84C73.14,72.37,68.63,66.81,68.63,58.26Z" transform="translate(-14.29 -11.67)"/><path class="cls-2" d="M90.83,58.26c0-8.55,4.59-14,11-14s11,5.41,11,14-4.6,14.11-11,14.11S90.83,66.81,90.83,58.26Zm20.57,0c0-7.76-3.84-12.65-9.56-12.65s-9.55,4.89-9.55,12.65,3.84,12.8,9.55,12.8S111.4,66,111.4,58.26Z" transform="translate(-14.29 -11.67)"/><path class="cls-2" d="M119.27,44.79h1.46l11.94,19.74,3.1,5.34H136c-.15-2.61-.23-5.11-.23-7.65V44.79h1.35v27.1h-1.49L123.68,52.14l-3.1-5.34h-.15c.08,2.54.15,4.85.15,7.43V71.89h-1.31Z" transform="translate(-14.29 -11.67)"/><path class="cls-2" d="M151.67,58.26c0-8.55,4.55-14,11.42-14A9,9,0,0,1,170,47.51l-.86.93a7.88,7.88,0,0,0-6-2.83c-6.19,0-10,4.89-10,12.65s3.77,12.8,9.81,12.8a8.94,8.94,0,0,0,7-3.43l.86.9a9.87,9.87,0,0,1-7.95,3.84C156.19,72.37,151.67,66.81,151.67,58.26Z" transform="translate(-14.29 -11.67)"/><path class="cls-2" d="M188.62,62.25h-11l-3.4,9.64h-1.38l9.67-27.1h1.23l9.7,27.1H192Zm-.41-1.19-1.87-5.41c-1.15-3.29-2.09-6-3.09-9.45h-.15c-1,3.4-2,6.16-3.14,9.45l-1.9,5.41Z" transform="translate(-14.29 -11.67)"/><path class="cls-2" d="M198,44.79h2.2L206,61.14c.74,2,1.49,4.06,2.24,6.12h.14c.75-2.06,1.42-4.11,2.13-6.12l5.82-16.35h2.21v27.1h-1.38V53.15c0-2.13.07-4.89.15-7.09h-.15l-2.09,6L209,68.86h-1.45L201.38,52l-2.12-6h-.15c.11,2.2.18,5,.18,7.09V71.89H198Z" transform="translate(-14.29 -11.67)"/><path class="cls-2" d="M226.73,44.79h6.53c6.16,0,9.7,2,9.7,7.39,0,5.22-3.47,7.76-9.55,7.76h-5.3v12h-1.38Zm6.19,13.92c5.79,0,8.55-1.87,8.55-6.53S238.63,46,232.77,46h-4.66V58.71Z" transform="translate(-14.29 -11.67)"/><path class="cls-3" d="M254.87,71C264.5,62.78,268,57,268,51.92c0-3.51-1.79-6.39-5.94-6.39a8.34,8.34,0,0,0-6.3,3.47l-.94-.85C256.7,46,259,44.3,262.15,44.3c4.59,0,7.24,3,7.24,7.62,0,5.93-4.44,11.68-12.28,18.92,1.49-.11,3-.19,4.44-.19h9.18v1.24H254.87Z" transform="translate(-14.29 -11.67)"/><path class="cls-3" d="M274.65,58.26c0-9.44,2.87-14,7.69-14s7.65,4.52,7.65,14-2.91,14.11-7.65,14.11S274.65,67.82,274.65,58.26Zm14,0c0-8.21-2.47-12.76-6.27-12.76S276,50.05,276,58.26s2.46,12.88,6.31,12.88S288.61,66.58,288.61,58.26Z" transform="translate(-14.29 -11.67)"/><path class="cls-3" d="M295.59,70.65h6.23V47.32h-4.74v-1A14.41,14.41,0,0,0,302,44.79h1.16V70.65H309v1.24H295.59Z" transform="translate(-14.29 -11.67)"/><path class="cls-3" d="M314.73,68.94a6.21,6.21,0,0,0,4.86,2.2c3.92,0,7.5-3.47,7.76-13.48-1.9,2.17-4.18,3.7-6.91,3.7-4.51,0-7.16-3.06-7.16-8.51,0-4.93,3.21-8.55,7-8.55,5.26,0,8.43,4.48,8.43,12.32,0,11.76-4.48,15.75-9.26,15.75a7.17,7.17,0,0,1-5.59-2.46Zm12.62-13c-.15-6-2.35-10.41-7.13-10.41-3.17,0-5.52,3.24-5.52,7.35s1.71,7.35,5.86,7.35C322.65,60.2,325.11,58.93,327.35,55.91Z" transform="translate(-14.29 -11.67)"/><g class="cls-4"><path class="cls-2" d="M76.68,91.51c-4,5.77-9.71,10.38-16.72,13.92a158.64,158.64,0,0,0,26.77,3.46A30.56,30.56,0,0,0,83,115c-12.11-.83-22.9-2.64-32.21-5.69C40.53,112.84,29,114.82,17.55,116A22.74,22.74,0,0,0,14.83,110a150,150,0,0,0,27-4.2,58.59,58.59,0,0,1-11-6.83A74.66,74.66,0,0,1,20,105.1a20.4,20.4,0,0,0-4.78-5.19,70.76,70.76,0,0,0,10.63-5.43,43.8,43.8,0,0,1-4.29-5.19L27.19,87a21.9,21.9,0,0,0,3.37,4.12A37.34,37.34,0,0,0,36.49,85H22.24V54.29H43.58c.32-1.32.57-2.72.9-4H14.67V44H84.1v6.26H52.88c-.57,1.48-1.07,2.8-1.56,4H76.6V85H45.14c-1,1.31-1.89,2.55-3,3.87H70.84l1.31-.33Zm-47-28.58H68.94v-4H29.66Zm0,8.73H68.94V67.55H29.66Zm0,8.73H68.94V76.28H29.66Zm5.93,15a57.71,57.71,0,0,0,15.32,7.5,48.44,48.44,0,0,0,14.57-8.57H36.9Z" transform="translate(-14.29 -11.67)"/><path class="cls-2" d="M127.75,45.31c8.15,7.82,22,15.89,33.44,20a44.75,44.75,0,0,0-5.93,7.17,122.32,122.32,0,0,1-32.37-21.91,117.6,117.6,0,0,1-15,12.68h30.56v7.09H106.91V63.92a132.31,132.31,0,0,1-15.48,9.23,38.6,38.6,0,0,0-5.77-6.76c13.43-5.85,28.25-16,36.32-26.6l7.17,3.87Zm25.37,33.52c-6.51,7.08-15.32,16.31-23.31,24.3,3,2.3,5.6,4.36,7.58,6.25l-5.77,6.51c-5.35-5.52-16.8-13.84-25.45-19.44l5.35-5.68c3.46,2.23,7.58,4.86,11.54,7.58,5.27-4.94,10.87-10.38,15.4-15.07H96.78V76h49.34l1.23-.42Z" transform="translate(-14.29 -11.67)"/><path class="cls-2" d="M219,40.53a47.22,47.22,0,0,1-2.23,12.93,178.64,178.64,0,0,1,16.39,9.14l-3.7,4.29h2.63V82h-7.66V72.82H170.5V82h-7.33V66.89h.74A19.82,19.82,0,0,0,160.37,62c14.08-3.3,16.39-9.15,17-21.42h6.67A45.76,45.76,0,0,1,182,53.71c4.11,2.39,9.3,5.6,12.18,7.66l-4.69,4.78c-2.39-1.82-6.59-4.7-10.38-7.17-2.8,3.46-6.83,6-13.26,7.91h33.11a21.41,21.41,0,0,0-3.79-5.69c14.09-3.13,16.23-8.81,17-20.67ZM168.69,53.79c-1.32-2.06-4.12-5.52-6.26-8.15L167,42.26c2.22,2.47,5,5.68,6.5,7.66Zm26.43,42.66H227v19.61h-7.58V114H177.25v2.14H170V96.45h18.45c.58-1.23,1.15-2.71,1.73-4H175.6V76.69h44.15V92.42H197.18Zm24.3,5.52H177.25v6.34h42.17ZM182.69,87.39h29.48V81.63H182.69ZM197,46.46a97.8,97.8,0,0,1-7.25,8.16l-4.53-1.9a58,58,0,0,0,5.6-8.48Zm6.34,7A102.24,102.24,0,0,0,197,45.31l4.61-3.38c2.31,2.47,5.11,5.68,6.59,7.66Zm23.88,13.43c-3.37-2.31-8.73-5.44-13.42-8-3,3.54-7.5,6.09-14.5,8Zm6.1-20.51c-2.72,3.13-5.6,6.42-7.91,8.56l-4.61-2.14a65.31,65.31,0,0,0,6-8.73Z" transform="translate(-14.29 -11.67)"/></g><g class="cls-5"><path class="cls-2" d="M76.31,63.39c-4,5.77-9.72,10.38-16.72,13.92a158.64,158.64,0,0,0,26.77,3.46,30.6,30.6,0,0,0-3.71,6.1c-12.11-.83-22.9-2.64-32.2-5.69-10.3,3.55-21.83,5.52-33.28,6.67a22.71,22.71,0,0,0-2.71-5.93,149,149,0,0,0,27-4.2,58.18,58.18,0,0,1-10.95-6.83A75.31,75.31,0,0,1,19.64,77a20.7,20.7,0,0,0-4.77-5.19,70.19,70.19,0,0,0,10.62-5.43,44.71,44.71,0,0,1-4.28-5.19l5.6-2.31A22.36,22.36,0,0,0,30.19,63a37.36,37.36,0,0,0,5.93-6.09H21.87V26.17H43.2c.33-1.32.58-2.72.91-4H14.29V15.87H83.72v6.26H52.51c-.58,1.48-1.07,2.8-1.57,4H76.23V56.89H44.76c-1,1.32-1.89,2.55-3,3.87H70.46l1.32-.33Zm-47-28.58H68.57v-4H29.28Zm0,8.73H68.57V39.43H29.28Zm0,8.74H68.57V48.16H29.28Zm5.93,15a57.71,57.71,0,0,0,15.32,7.5,48.29,48.29,0,0,0,14.58-8.57H36.53Z" transform="translate(-14.29 -11.67)"/><path class="cls-2" d="M127.37,17.19c8.16,7.82,22,15.9,33.44,20a45.29,45.29,0,0,0-5.93,7.17,121.88,121.88,0,0,1-32.36-21.91,116.78,116.78,0,0,1-15,12.68h30.55v7.09H106.54V35.8A133.24,133.24,0,0,1,91.05,45a38.52,38.52,0,0,0-5.76-6.76c13.42-5.84,28.25-16,36.32-26.6l7.16,3.87Zm25.37,33.52C146.23,57.79,137.42,67,129.43,75c3,2.3,5.6,4.36,7.58,6.26l-5.76,6.5c-5.36-5.52-16.81-13.83-25.45-19.43l5.35-5.69c3.46,2.23,7.58,4.86,11.53,7.58,5.27-4.94,10.87-10.38,15.4-15.07H96.41V47.83h49.33l1.24-.41Z" transform="translate(-14.29 -11.67)"/><path class="cls-2" d="M218.63,12.41a47.24,47.24,0,0,1-2.22,12.93,177.51,177.51,0,0,1,16.39,9.15l-3.71,4.28h2.64V53.92h-7.66V44.7H170.12v9.22h-7.33V38.77h.74A19.82,19.82,0,0,0,160,33.83c14.09-3.3,16.39-9.15,17-21.42h6.67c-.25,5.19-.82,9.56-2.14,13.18,4.12,2.39,9.31,5.6,12.19,7.66L189.06,38c-2.38-1.82-6.58-4.7-10.37-7.17-2.8,3.46-6.84,6-13.26,7.91h33.11a21.61,21.61,0,0,0-3.79-5.68c14.08-3.13,16.22-8.82,17-20.68ZM168.31,25.67c-1.32-2.06-4.12-5.52-6.26-8.15l4.61-3.38c2.23,2.47,5,5.69,6.51,7.66Zm26.44,42.67h31.87v19.6H219V85.88H176.88V88h-7.25V68.34h18.45c.57-1.24,1.15-2.72,1.73-4H175.23V48.57h44.14V64.3H196.81ZM219,73.85H176.88V80.2H219ZM182.31,59.28H211.8V53.51H182.31Zm14.33-40.94a97.8,97.8,0,0,1-7.25,8.16l-4.53-1.9a57.16,57.16,0,0,0,5.6-8.48Zm6.34,7a100,100,0,0,0-6.34-8.15l4.61-3.38c2.31,2.47,5.11,5.69,6.59,7.66Zm23.89,13.43c-3.38-2.31-8.73-5.44-13.43-8-3,3.54-7.49,6.09-14.49,8ZM233,18.26c-2.72,3.13-5.6,6.42-7.9,8.57l-4.62-2.15a64.76,64.76,0,0,0,6-8.73Z" transform="translate(-14.29 -11.67)"/></g></g></g></svg>